<?xml version='1.0' encoding='UTF-8'?>
<svg xmlns="http://www.w3.org/2000/svg" width="1688" height="1024" viewBox="8 8 422 256" preserveAspectRatio="xMidYMid meet" role="img" aria-labelledby="title desc"><title id="title">inb logo mark</title><desc id="desc">High-quality vector monogram with corrected hook-free b.</desc><rect x="22" y="90" width="36" height="161" rx="0" fill="#224b96"/>
  <circle cx="40" cy="45" r="20" fill="#224b96"/>

  <path d="M93 251V165C93 120 119 92 153 92S214 120 214 165V251" fill="none" stroke="#daaa64" stroke-width="35" stroke-linecap="butt" stroke-linejoin="round"/>

  <rect x="249.5" y="21" width="35" height="148" fill="#224b96"/>
  <path fill="#224b96" fill-rule="evenodd" d="M333 85.5            A83.5 83.5 0 1 1 332.999 252.5            A83.5 83.5 0 1 1 333 85.5 Z            M333 120.5            A48.5 48.5 0 1 0 333.001 217.5            A48.5 48.5 0 1 0 333 120.5 Z"/>

  </svg>
